<svg xmlns="http://www.w3.org/2000/svg" width="2000" height="857" fill="#120f2b" stroke="#00f0ff" stroke-linecap="round" stroke-linejoin="round" version="1.2"><path id="AF" d="m1383 262 2 1-3 1-3 1-6 1-5 1-2 3 1 3 2 3-2 3 1 2-1 3-5-1 3 5-3 1-2 4 1 4-2 2-2-1-4 1v2h-4l-2 4 1 5-7 3-4-1-1 1h-3l-6 1-9-4 4-6-1-4-5-1-1-4-3-5 2-3-2-1v-5l1-8 6 2 3-1 1-2 4-1 2-2v-5l4-2 1-2 3 2h4l5 1 1 1 4-2 2 1 1-3h4l-1-3 2-2 3 1v2h2l1 6 3 2 1-1 2-1 3-3 4 1z"/><path d="m1121 572 1 2-1 3 1 3-1 3v2h-11l-1 20 4 5 3 4-10 3-14-1-4-3h-22l-1 1-3-3h-4l-3 1-3 1-1-4 1-6 2-6 1-2 2-6 1-3 3-4 2-3 1-5-1-3-1-3-2-3-1-4v-2l2-2-1-6-2-5-2-4v-1l2-1h21l1 4 2 4 1 2 2 4 4-1 2-1 3 1 1-1 1-4h4v-2h3l-1 3h7v4l1 2-1 4 1 4 2 2-1 8 2-1 2 1 4-1zm-66-33-1-5 2-3 2-1 2 3-2 1-1 2v2z" class="Angola"/><path id="AL" d="M1088 228v1h2l1 1 1 1 1 2-1 2 1 3 3 2v1l-2 1v2l-2 3h-1v-1l-3-3-1-3v-7l-1-2z"/><path id="AE" d="m1296 337 2 5h-3v4l1 1-3 1 1 3-2 2v3l-1 1-17-3-2-6-1-2h1l1 2 4-1h8l3-4 4-4 3-4z"/><path d="M669 852h-8l-6-14 3 3 5 4 7 4 8 2-1 3h-5zm-30-207 11 10 4 1 8 5 6 2 1 3-4 10 5 2 7 1 4-1 4-5v-6l3-1 3 4 1 5-5 3-3 3-5 6-6 9-1 5v7l1 6-1 1 1 4v4l8 5v5l4 3v3l-3 8-7 3-10 2-6-1 2 4v5l2 3-3 2-5 1-6-2-1 1 2 7 4 1 3-2 2 4-4 2-3 4 1 6v3h-5l-3 4 1 4 6 5 5 1v6l-4 3-1 8-3 2-1 3 4 7 5 3h-2l-5-1-12-1-4-4-2-4h-3l-3-2-3-7 3-2v-4l-2-4 1-5-1-8-2-4 2-1-1-3-3-1 1-2-3-3-4-7 1-1-3-8-1-7v-5l3-3-4-6-1-6 3-4-2-5 2-7-1-6-2-1-5-11 2-6-1-7v-6l3-6 3-4-2-2 1-2-1-11 5-3 1-7-1-1 4-6 8 2 4 4 1-5h7z" class="Argentina"/><path id="AM" d="M1231 253h-2l-3-4h0-2l-2-2h-1l-3-2-4-2v-3l-1-2 7-1 1 2 2 1v2l3 2-1 2 2 1 3 1z"/><path d="m1743 764 4 2 3-1 5-1h3l-5 8-3 2-4 5-1-2-6 5-1-1h-3v-5l2-4 1-6 2-3zm51-174 1 5 4-2 1 3 2 2-1 3 1 5v4h1v6l-1 3 1 5 5 3 4 3 3 3-1 1 2 4 1 7 2-1 2 3 1-1v7l2 3 2 3 3 5v5l-1 4-2 4 1 5-2 6-3 3-3 6-2 3-3 5-5 6-5 3-5 5-3 3-5 6-3 3-4 5-3 4-1 2-4 2-6 1-7 2-4 3-4 2-3-2-3-2 3-3-4 1-7 5-3-2-3-1h-3l-4-2-1-4 2-5v-3l-1-3h-5l3-4 1-4-5 4-5 1 4-3 3-4 3-3 2-5-7 6-4 2-4 5-3-3 1-3-1-5-2-2 2-2-6-4h-3l-4-3-10 1-8 2-7 2h-5l-7 3-5 1-3 4-3 2-4 1h-4l-4-1-4 1h-4l-5 3h-1l-4 2-3 2h-7l-4-4-3-2 2-3 3-1 1-2 1-2 2-4 1-4-1-7v-3l2-4-1-4v-2l-2-3 1-5-2-5v-2l2 2-1-6 3 2 1 3v-4l-1-5v-2l-1-2 1-3 2-2 1-3v-4l3-5v5l3-4 5-2 3-3 5-2 2-1 2 1 4-2 4-1 1-2h5l6-2 3-3 2-3 4-3 1-3 1-3 5-6 1 6 3-2-2-3 2-3 3 2 1-5 4-3 1-3 3-1 1-2 2 1v-2l3-1 3-1 3 3 3 4h4l3 1-1-4 4-5 3-1-1-2 3-4 4-2 2 1 5-1v-4l-3-2 3-1 3 2 3 2 4 2 2-1 3 2 4-1h2l1-1 3 3-2 4-3 2h-2l1 3-3 3-2 3v2l4 4 4 2 2 2 4 4h1l3 1v2l5 3 4-3 2-3 2-3 1-3 3-6v-8l2-5 1-1-1-2 2-4 2-3v-2l2-3 2 4-1 4h2v3l1 3v4z" class="Australia"/><path id="AT" d="m1071 191 1 2v2h-3l1 2-1 4-1 1h-5l-2 1h-4l-7-2-2-2-5 1v1h-3l-3-1-2-1 1-1-1-1 2-1 2 2 1-2 4 1 4-2 2 1 2 1 1-1-1-4 1-1 2-3 4 2 2-2 2-1 4 2h2z"/><path d="m1229 253-4-1-3-3-1-2h1l2 1h2v1zm6-17 3-2 3 3 4 5h2l2 2h-4v7l-2 2 1 3h-1l-4-3 1-3-2-2h-2l-5 5-1-5-3-1-2-1 1-2-3-3v-1l-2-1-1-2 1-1 4 2h4l-4-4 1-1 2 1 4 3 3 1z" class="Azerbaijan"/><path id="BI" d="m1155 530-2-6h0v-1l-1-3 3 1 2-4h3v3l2 1v2l-2 2-2 3z"/><path id="BE" d="m1017 177-1 4h-1l-1 4-4-3-2 1-4-3-2-3h-3v-2l4-1h3l5-1 3 3z"/><path id="BJ" d="M1007 427v2l1 4-1 3v1l-3 4-1 2-1 4v15h-5l-2-4 1-15-1-1-1-3-2-2-1-2v-4h2l1-3 3-1 1-2 2-2h2z"/><path id="BF" d="m989 406-1 3 1 3 3 4v3l7 2v4l-2 2-3 1-1 2-2 1h-7l-2 1-2-1h-10v9l-4-2h-2l-2 2-3-1-1-2-2-2-1-4 2-2v-2l4-6 1-4 2-2 2 1 3-1 1-2 4-3 1-2 5-2 3-1 2 1z"/><path id="BD" d="M1501 360v5l-2-1 1 5-2-3-1-3-1-4-3-3-5-1 1 3-1 4-3-2-1 1h-1l-3-1-1-5-3-5 1-4-4-2 1-2 3-2-5-4 1-4 5 3h3l1 5 6 1 5-1 3 1-2 6h-2l-1 4 3 3 1-4h1z"/><path id="BG" d="m1133 222-3 2-1 5 2 3-5-1-4 2v4h-5l-4-2-4 2h-4v-5l-3-2 1-1h-1l1-2 1-2-2-3-1-2 1-2 2 3 2-1 4 1 7 1 3-2 5-1 5 2z"/><path id="BA" d="M1083 214h2l-1 3 3 3-1 2-1 1h-1l-2 2v3l-5-2-2-3-2-1-2-3-2-1-2-3v-3l2 1 1-1h3l4 1h4z"/><path id="BY" d="m1142 163-4-1-1 1 1 2 2 4h-4l-1 2v3l-2-1-4 1-2-2-1 1-2-1h-4l-6-1-5-1h-4l-2 2h-2l-1-2-2-3 3-2v-2l-2-2-1-3h5l5-2v-4l4-2-1-2 3-1 4-3 6 2 1 1h2l5 1 1 3-1 1 4 4 2 2v1l3 1 2 1z"/><path id="BZ" d="M488 400h-2l1-7 1-5v-1l1-1 1 1 2-4h1v1h1v2l-1 3v1l-1 2h0v4l-2 1-1 1z"/><path id="BO" d="m663 631-1-2-5-3h-5l-10 2-2 5v4l-1 8-1-2h-7l-1 5-4-4-8-2-4 6-4 1-3-9-3-7 1-7-3-2-2-5-3-4 3-7-3-6 1-2-1-2 2-3v-10l1-3-6-10 4 1 3-1 1-1 5-3 3-2 7-2v5l1 3v4l6 6 7 1 2 2 4 2 2 1h4l3 2 1 4 1 2v3h-2l3 7h11l-1 4 1 3 3 1 2 4v6l-2 2 1 4z"/><path id="BR" d="M666 490h3v-4h5l3 1 3 1 2-1h1l1 2 2-1 3-2 1-5 4-6h2l1 3 3 12 3 1v4l-4 5 2 2 10 1v7l4-4 7 2 10 4 3 4-1 3 6-2 11 4 9-1 8 6 8 7 4 2h5l2 2 2 8 1 4-2 11-3 4-7 9-4 7-4 6h-1l-2 4 1 12-1 10v5l-2 2v9l-5 8-1 7-4 2-1 4h-6l-9 3-3 3-6 2-7 5-4 6v5l1 3v7l-1 3-3 4-5 11-4 5-3 3-1 6-3 4-2-4 1-3-3-4-5-4-6-4h-2l-7-5-3 1 6-9 5-6 4-3 4-3-1-5-3-4-2 1v-4l1-3-1-4-2-1-2 1h-2l-1-3-1-6-1-2-4-1-2 1-6-1v-9l-2-4 1-1-1-4 2-2v-5l-1-4-4-2v-6l-11-1-2-7h1v-3l-1-2-1-4-3-2h-4l-2-1-4-2-2-2-7-1-6-6v-4l-1-3 1-4-8 1-3 2-4 3-2 2h-2l-5-1-3 1h-2l-1-10-4 4-5-1-2-3h-4l1-3-3-4-3-6 2-1-1-3 4-2-1-3 1-2 1-3 6-5 5-1v-1h6l2-17v-3l-1-4-3-2v-5l4-1 1 1v-2l-3-1v-4h11l2-2 1 2 1 4 1-1 3 3h5l1-2 4-2 2-1 1-2 4-2v-2h-5l-1-4 1-5-3-1 1-1 4 1 5 2 2-2 4-1 6-2 2-3v-2h3l1 2-1 3h2l1 3-1 3-1 5 1 3v3l4 3 3 1v-2h2l3-1 1-2 4 1z"/><path id="BN" d="m1633 473 2-3 5-3v7h-3l-1 2z"/><path id="BT" d="m1489 324 2 2 1 4h-5l-4-1-4 1-5-2v-1l2-5 3-2 4 2h3z"/><path id="BW" d="m1128 616 1 5 2 1 1 4 6 7h3l-1 3 2 4 4 1 4 3-8 4-6 5-2 5-1 2h-3l-2 4v2l-4 1h-4l-3-2-2-1-3 2-1 3-3 2-3 2-4 1-1-2 1-4-3-6-2-1 1-19h5l1-23h4l9-2 2 2 4-2h1l4-2z"/><path id="CF" d="m1121 447 4 2 3 3v2l4 3 3 3 1 4 4 2 1 2-1 1h-4l-4-1-2 1-1 1h-2l-2-1-7 3h-3l-2 4-4-1-4-1-4-2-4-2-3 2-3 3v4h-4l-4-1-3 3-3 6v-2l-1-2-2-3-2-3-1-2-3-4 1-1-1-3 1-5 1-1 3-7h4l1-2h1l2 2 7-3 2-2 3-3v-2h7l5-3 4-7 3-3 3-1 1 3 3 4v7z"/><path d="M666 204h8l-3 3h-2l-6-2v-2l2-2zm14-16h-2l-6-2-3-3 2-1 5 2 5 2zm-308 3-3 1-6-3v-2l-3-2v-2l-4-1 1-3 1-2 4 2 3 1h4v5l4 3zm340-13-5 5 3-2 3 2-2 2 4 1 2-1 5 2-3 4 4-1-1 4 1 3-4 6h-2l-3-1 3-5-2-1-7 6-3-1 4-3-4-1h-15v-2l4-2-2-2 5-3 8-10 5-4 5-2h2l-2 2zm-360-22 1 1h5l-7 7v5h-2v-6l-1-2 2-3zm283-47-4 3-1-1-1-1 1-1 3-1h1zm-10-3-7 3h-3v-2l5-2h6zm-3-17-1 2h3l1 1 4 2 4 2-2 2h4l2 2-5 2-6-2-1-2-6 3-8 3v-4l-6 1 6-3 3-4 5-5zm45-8h-5l1-3 4-3 4-1 2 2-1 2-1 1zm-74-11-5 2-4-2-4 1-3-3 5-1 5-3 3 2 1 1 1 1z" class="Canada"/><path d="m646 213-3-4 3-9-1-1-4 1-1-2-6 5-3 5-3 2-2 2h-2l-1 1h-17l-3 2-7 4v0l-1-1-2 1-1 2-2-1h-5l-4 1-2 1-2 2 2 1 1-1h1l-1 2-4 1-3 1-2 1-2-1-2 1-3 1-4 2h-3l2-2 3-4 5-2 1-2 1-3 3-3 1-4 1 4 4 1 3-2-2-5-1-2-4-1-4-1h-3l-4-1v-1l-2 1-1-1 2-2-2-1 2-2-1-2 2-2h-5l-1-4v-1h-4l-4-1-1 1-2 1-3 1-3 3-6-2-4 1-4-2-5-1-3-1-1-1 1-3h-2l-1 2H377l-5-6-2-2-7-3 1-6 4-3-4-3 3-5-2-4 2-3 5-3 4-4-5-4 1-7 1-4-1-3-1-2 1-3-7 2-7 3-1-4v-2l-3-2h-4l35-33 25-20 6 1 3 2 4 1 6-2 7-2 6 1 9-3 8-1v2l4-1 4-3 2 1 2 5 9-4-4 4 6-1 4-1h4l4 2 8 2 4 1h5l3 3-9 2 6 2 12-1 5-1 1 3 7-2-2-3 5-2h9l2 1 1 3 5-1 6 3 7-1h6l2-3 5-1 5 2-5 5 7-5 3 1 6-6-1-3-3-2 5-6 8-4 5 1 2 2v6l-6 3 7 1-4 5 9-4 2 4-4 4 1 3 7-4 7-4 4-6h6l5 1 4 3-2 2-5 3 1 3-2 3-11 4-7 1-3-2-3 3-8 4-3 3-7 4h-7l-5 2-3 4-6 1-8 5-10 6-5 5-5 7 6 1-1 5-1 5 7-1 7 2 4 2 1 3 5 2 4 3h7l5 1-3 5-2 6v7l4 6 5-2 6-7 2-9-2-4 9-2 8-5 5-4 1-4v-5l-3-4 9-7 1-5 4-9 3-1 7 1 4 1 5-2 3 2 3 4 1 2h7l-2 5-3 8 4 1 2 3 8-3 8-7 4-2 1 5 3 7 2 8-4 3 5 4 3 3 7 2 2 2v5l4 1 1 2-2 7-5 2-4 2-9 3-8 5-8 1-10-2h-8l-5 1-6 4-7 3-10 8-8 6 5-1 11-8 12-6h8l3 3-6 4-1 7v5l6 3 8-1 8-7-1 4 2 3-7 4-13 4-5 2-8 5-3-1 1-5 11-5h-9z" class="Canada"/><path d="m539 49-5 2 11-1 2 2 8-2 1 1-2 5 5-2 2-5 5-1 3 1 2 2-3 5-2 4 4 2 5 3-3 2-7 1 1 2-3 2-7-1-6-1h-5l-9 2-11 1h-8v-3l-4-1-4 1-1-5h3l8-1h5l6-1-6-1h-15v-2l12-2h-7l-5-1 8-4 5-2 14-3zm40-2-7 4-3-4 2-1h6zm108 2-1 1h-8l-5 1-1-1-2-2 2-2 2-1 9 1z" class="Canada"/><path d="m647 49 1 3 7-4 11-2 3 5-3 3 9-1 5-2 7 2 3 3-1 2 8-1 2 3 9 2 2 2 1 5-9 3 7 4 6 1 4 5h6l-3 4-11 7-4-3-4-5h-6l-2 4 3 3 4 3 1 1v6l-3 4-5-2-9-4 4 5 3 3-1 2-11-2-7-4-4-2 2-2-4-3-5-3-1 2-13 1-3-2 6-4h8l9-1v-2l3-3 9-5v-4l-5-3-7-2 4-1-2-4h-4l-2-2-3 2h-8l-14-1-7-1-6-1-2-2 6-2h-6l4-6 7-4 6-2 11-2zm-50-4 3 1 8-1v2l-6 2 3 3-5 4-8 2h-4l-1-2-6-4 2-2 8 1-1-3zm23 6-8 3h-5l2-4 3-3 4-2 5-2 8 1 6 1-10 4zm-116 7-14 2 1-2-6-3 4-2 8-4 7-3 1-3 14-1 4 1h9l2 2 2 2-7 1-13 4-10 4zm125-19-4 2h-5l-4-2 5-2 7-1 1 2zm-9-8v2l-2 2-6 4-7 1-3-1 3-3h-7l5-4 3 1 8-2zm-39 2-1 2 4-1h4l-2 3-5 2-14 1-13 2h-6l2-1 11-3-18 1-4-1 11-5 6-1 8 2 3 2 6 1 1-5 5-2 4 1zm55-4 3 1h7l1 2-2 2 3 1 1 1h5l5 1 7-1 8-1 6 1 2 2-1 2-3 1-7 1-4-1-12 1h-14l-8-2 1-3 2-2-1-2-7-1-3-2 4-2zm-75-3-6 4-5 2h-4l-10 2-7 1-4-1 12-4 12-3h6zm81 1h-8v-2h7l2 1zm-59-1-9 1-3-1 5-2h10zm8-4-6 1h-6l1-1 6-1h2zm47 2-7 1-1-1v-2l2-2 5 1h1l3 2zm-14-1-1 2-6-1-3-1h-8l5-2-3-1 2-2 7 1 7 2zm54-6 3 1-7 2-10 3h-14l-2-2 3-2 4-1h-7l-2-1 1-2 5-2 4-1 4-1-1-1h9l1 2 5 1 5 1z" class="Canada"/><path d="M757 3h9l7 1 5 1-1 1-10 1-9 1-4 1h7l-10 3-7 1-9 3-8 1-3 1h-12l5 1-4 1 1 2-5 2-7 1-3 2-7 1v1h6l-1 1-13 3-8-1-12 1-5-1h-7l2-2 8-2 2-3h3l8 2-2-3-5-1 5-2 8-1 2-2-3-1 1-3h10l2 1 7-2h-20l-4-1-1-2-2-1 1-1 6-1h4l7-1 7-1h4l3 1 5-2 5-1h35z" class="Canada"/><path id="CH" d="m1034 198-1 1 2 1h3l-1 3-2 1-3-1-1 3h-3l-1-1-2 2h-3l-2-1-2-3-2 1v-3l3-3v-2l2 1 2-1h4l1-1z"/><path d="m1602 382-4 3-5-2-1-5 2-3 6-2h3l2 2-2 3zm24-196 9 4 6 6h7l3-3 7-1 1 5v2l2 7 1 7-7-2-3 3 5 5 4 8h-3l2 3-5-4v4l-7 2 3 4-4-1-4-2-1 5-4 3-2 5-6 1-3 3-5 2 2-3-3-2 2-5-4-3-4 2-3 5-1 4h-5l-2 3 5 4 5 2 1 2 5 2 4-4 6 2h4l2 4-7 1-1 4-4 3-1 5 8 3 4 6 6 6 5 5 2 5-3 2 2 3 4 2 1 5v6h-3l-2 7-2 9-3 7-7 6-6 6h-7l-2 3-3-2-2 3-7 3-6 1-1 7-3 1-2-5 1-3-8-2-3 1-5-1-4-3 1-4-6-1-3-2-4 3-5 1h-4l-3 2h-3l2 8h-3l-1-2v-3l-4 2-3-1-4-2 1-6-4-1-2-6-6 1-1-7 5-6-1-5-2-5-2-1-3-4h-3l-6-1 1-2-4-4-3 2-5-1-5 4-4 5h-4l-3-1h-3l-4-2-3 2-2 5-2-5-3 1-6-1-7-1-5-3-4-1-3-3-3-1-7-4-5-2-1 1-9-4-6-4-3-8 4 1-1-3-3-3-1-5-7-8-10-3-3-5-5-3-1-1-2-4v-2l-4-2-2 1-3-6 1-2-1-1 4-3 4-2 5 1 1-4h6l1-3 7-3v-2l-1-4 3-1-9-11 9-3 2-1-1-11 11 2 1-3-2-6 4-1 2-4 1-1 4 5 5 3 8 2 6 6 2 7 3 3 6 1 7 1 8 4h4l5 6 4 4h6l11 1 7-1 5 1 10 4h6l3 2 5-3 7-3h8l4-2 2-3 3-3-2-2-3-2 1-4h3l6 2 3-4 6-2 2-4 2-2 7-1 4 1-1-2-7-5-5-2-2 2-6-1-2 1-3-2v-7l-1-4 7 2 5-4-2-3v-6l1-2-2-3-4-2 2-3 5-1h6l8 2 6 2 8 6 4 3 4 4 7 6z" class="China"/><path id="CI" d="m956 435 2 2 1 2 3 1 2-2h2l4 2 2 9-3 5-1 8 2 5v3h-2l-4-1h-4l-7 1-4 2-5 2h-1v-5l1-1-1-3-2-3h-2l-1-2 1-3-1-3 1-1h1v-3l-1-2 1-1h2l-1-5-2-3 1-2 1-1h1l1 1h5l1-2h1l1-1 1 3 2-1z"/><path id="CM" d="m1073 454-3 7-1 1-1 5 1 3-1 1 3 4v2l3 3 2 2v3l1 2v4l-5-2-4-2h-8 0l-4 1-3-1h-12l1-5-2-4-3-1-1-3-2-1v-2l2-4 3-7h1l4-3 2-1 3 3 4-2v-3l2-2v-4l3-2 1-5 2-1v-3l2-5 5-5v-3l-2-2v-2l2-1 2 4 1 5-1 4 4 6h-5l-3-1-1 3 3 4 3 1 1 3 2 4z"/><path id="CD" d="m1141 468 4 5 2 1 2-1 2 1 4-2 1 3 5 4v8l2 1-2 2-2 2-2 3-1 3-1 5-1 3v4l-2 2v4h-1v4l1 3v1l-1 10 2 4-1 3 1 4 4 4v3l2 2v1h-1l-8 1-1 1-2 4 1 3-1 7-1 7 2 1 4 2 1-1v7h-4l-2-4-2-2-4-1-2-4-3 2h-5l-1-3-4-1h-3v-2h-4l-4 1-2-1-2 1 1-8-2-2-1-4 1-4-1-2v-4h-7l1-3h-3v2h-4l-1 4-1 1-3-1-2 1-4 1-2-4-1-2-2-4-1-4h-21l-2 1-1-2 2-1v-2l1-2 2-1h1l2-2h4v2l2 1 3-4 4-3 1-2v-6l2-6 3-3 4-3v-2l1-3v-6l1-5 1-4 2-4v-8l3-3 3-2 4 2 4 2 4 1 4 1 2-4h3l7-3 2 1h2v-1l3-1 4 1h3z"/><path id="CG" d="M1091 479v4l-2 4-1 4-1 5v6l-1 3v2l-4 3-3 3-2 6v5l-1 3-4 3-3 4-2-1-1-2h-3l-2 2-1-1-2-2-2 1-2 3-5-7 5-3-3-4 2-2 4-1 1-3 3 3 5 1 1-3 1-5v-5l-3-3 2-8-1-1h-4l-2-3 1-3h7l4 2 5 2v-4l3-6 3-3 4 1z"/><path id="CO" d="m584 426-3 1-2 4-2 1-2 3-1 4-2 4 3 1 1 2 1 2v6l1 1 1 2 8-1 3 1 4 6 2-1h7l2 1-1 3-1 2-1 5 1 4 2 2v1l-3 4 2 1 2 2 1 7-1 1-1-4-1-2-2 2h-11v4h3v3l-1-1-4 1v5l3 2 1 4v3l-3 17-2-3h-2l3-7-4-3-3 1-3-1-3 1h-4l-3-7-3-2-2-3-4-3-1 1-2-2-3-2-2 1-5-1-1-3-1 1-6-4v-2l2-1-1-3 2-2 3-1 2-4 2-3-2-1 2-4-2-6 2-2-1-5-2-4 1-3 2 1 1-2-1-4v-1h3l5-4 2-1v-2l2-5 3-3h3l1-2 4 1 5-3 2-2 3-3h2l2 2z"/><path id="CR" d="m515 432 1 3 2 3 2 2-2 1v3l1 1h-1v4l-3-1-2-2 1-1v-1l-1-2-3-1-1-1-1-2-1-1v2l-1 2-1-2-2-1-1-1v-2l1-2-1-1 1-1 1-1 4 2 1-1h2l1 2h1z"/><path id="CU" d="m545 356 2 2 5-1 2 2 4 4 3 3h2l3 1v2h4l3 3v1l-4 1h-16l4-3-2-2h-3l-2-2-1-4h-3l-5-1-1-2-8-1-1-1 2-1-6-1-4 4h-2l-1 1-3 1-2-1 3-2 1-2 3-1 3-2h4l2-1h5l4 1z"/><path id="CZ" d="m1060 175 2 2 4 1v1l3 2v-2l3 1 1 2h4l3 3h-2l-1 1-1 1v1h-1v1l-2 1-2-1v2l-3-1h-2l-4-2-2 1-2 2-4-2-3-3-3-1v-3l-1-2 3-1 2-1 3-2 1-1 2 1z"/><path id="DE" d="m1054 159 1 3-1 2 2 2 2 3-1 2 3 4-2 1-2-1-1 1-3 1-2 2-3 1 1 2v3l3 1 3 3-2 3-1 1 1 4-1 1-2-1-2-1-3 1h-5l-1 2-2-2h-2l-5-1-1 1h-4v-5l2-4-7-1-2-2v-2l-1-2 1-4-2-6h3l1-3 1-5-1-2 1-2h4l1 1 3-3-1-2v-3h6l1 2 4 1 1 2 4-1 3-1 5 2z"/><path id="DJ" d="m1230 428-2 4-2-2-1 1h-3v-2l-1-2 2-3 2-3 2 1 2-2 1 2v3l-3 1z"/><path d="m1046 148-2 5-6-4v-2l6-2zm-13 4h-6l-2-4-1-6 1-2 1-1 4-1 2-1 3-2v3l-1 2 1 2h2l-1 3-1-1-3 5z" class="Denmark"/><path id="DO" d="M586 386v-2l-1-2 1-1 1-2v-4l1-1h4l3 2h2v2h3v2h3l2 2-2 3-3-1h-4l-1 1h-3v-1h-2l-3 5-1-1z"/><path id="DZ" d="m1031 265-1 3 1 6-1 5-3 4v5l5 4v1l3 3 3 11 2 6v3l-1 5 1 3-1 4 1 4-2 2 3 5v3l2 3 3-1 4 3 3 4-19 12-16 13-8 3-6 1v-5l-3-1-3-1-1-3-19-14-19-14-20-16v-9l9-5 5-1 5-2 2-3 6-2 1-5 3-1 2-2 7-1 1-3-1-1-2-7v-4l-2-4 5-3 6-2 3-2 5-2 9-1 9-1 3 1 5-2 5-1 2 2z"/><path id="EC" d="m559 503 1 5-2 4-6 7-7 2-3 6-1 4-3 3-3-4h-4l-1-2 2-2-1-2 3-5-1-3-2 3-4-3 1-2v-5l2-1 1-4 2-4-1-3 3-1 4-3 6 4h1l1 2 5 1 2-1 3 2z"/><path id="EG" d="m1172 301 4 10 1 1-2 3v5l-1 3-2 1-2-2-2-3-5-9-1 1 3 7 4 6 5 10 2 4 2 3 6 7-1 1v5l7 5 1 2h-66l-1-24-1-23-2-5 1-4-1-3 2-3h7l5 2 6 2 2 1 4-2 2-2 5-1 4 1 2 3 1-2 4 2h5z"/><path id="ER" d="m1229 420-2 2-2-1-2-2-3-4-2-2-2-2-5-2-4-1-1-1-3 2-4-3-1 5-7-2-1-2 2-10 1-4 1-2 4-1 3-4 4 8 1 6 4 3 8 6 3 3 3 4 2 2z"/><path id="EE" d="m1114 125-3 3 2 6-1 1h-4l-4-2h-2l-4 1v-4l-2 1-3-2-1-4 5-1 6-1 5 1z"/><path id="ET" d="M1207 409h4l5 2 2 2 2 3 3 3 2 2-2 3-2 3 1 2v2h4l2 1-2 2 3 4 2 3 2 2 19 8 5-1-16 20h-7l-5 5h-4l-1 2h-4l-3-2-5 2-1 3-4-1h-5l-7-6h-4l-2-2v-3l-3-1-3-7-3-2-1-3-3-3h-3l2-4h3v-8l2-6 2-2 1-3 2-5 3-3 2-6 1-6 7 2 1-5 4 3 3-2z"/><path id="FI" d="M1104 70v4l8 4-3 4 6 6-1 5 5 4-1 4 7 4-1 3-3 3-8 8h-8l-8 2-7 1-3-3-5-2v-6l-3-5 2-3 3-4 9-6 3-1-1-2-7-3-2-2-1-9-8-3-6-3 3-2 5 3h5l5 1 3-2 1-4 6-2 6 2z"/><path id="GA" d="m1061 487-1 3 2 3h4l1 1-2 8 2 3 1 5-1 5-1 3-5-1-3-3-1 3-4 1-2 2 2 4-4 3-6-6-3-5-4-7v-2l2-2 1-5 1-5h10v-8h3l3 1 4-1z"/><path d="m957 158-4-1h-3l1-3v-3l4-1 4 4z" class="United Kingdom"/><path d="m973 130-5 6 4-1h5l-1 5-4 5 5 1v1l4 7 3 1 3 7 2 2 6 1-1 4-2 2 1 3-4 3h-6l-9 2-2-1-3 3-5-1-3 2-3-1 7-6 5-2-8-1-1-2 5-2-3-3 1-4h8v-4l-3-3h0l-6-1-1-2 2-3-1-1-3 3v-6l-2-3 2-7 3-4h4z" class="United Kingdom"/><path id="GE" d="m1216 228 5 1 2 3 3 1-1 1 4 4h-4l-4-2-1 1-7 1-6-3h-5v-2l-2-5-4-2-3-1-2-2h1l4 1 8 1 8 3 1 1z"/><path id="GH" d="m987 431-1 2 2 3v5l1 5 1 3-1 5 1 3 1 4 1 3-9 4-3 2-5 2-5-2v-3l-2-5 2-8 2-5-2-9v-9h10l2 1 2-1z"/><path id="GN" d="M922 422v2h1l1-1 1 1 2 1 2 1 2-2 1-1h3l1 1 1 2 2 3-1 1v2h1l1 1-1 1 2 2-1 1-1 2 2 3 1 5h-2l-1 1 1 2-1 2h0-2l-1 3h-2l-1-2 1-2-3-4-1 1h-3v-2l-1-2v-2l-1-2-1-3h-5l-1 2h-2l-1 1v2l-4 3-2-4-2-3-2-1-1-1-1-3v-1l-2-1 3-3h1l2-1h1l1-1-1-2 1-1v-2h3l4 2 1-1h4z"/><path id="GM" d="M892 417v-3h6l2-1h2l2 1h1l2-1 1 2-2 2-2-1-3-1-2 2h-2z"/><path id="GW" d="M909 421v5l-1 1h-1l-2 1h-1l-3 3-3-3h-2l-2-2v-1l-1-1-1-2 3-1 2 1 2-1z"/><path id="GQ" d="M1050 487v8h-10l-1-1 2-7z"/><path d="m1113 273 3 2 4-1 4 1v1l3-1-1 2-7 1-1-1-6-2zm9-33h-3l-3-1-6 2 4 3-3 1h-3l-3-3-1 1 2 4 3 3-2 2 3 3 3 2v3l-5-2 2 4h-3l2 6h-3l-5-3-2-5-1-4-3-3-3-4v-1l2-4v-2l2-1v-1l3-1 2-1h3l1-1h4l4-2 4 2h5l-1-3 3 1-1 4z" class="Greece"/><path id="GL" d="m896 1 20 3-7 2h-31l1 1h13l9 1 7-1 3 1-5 3 9-2 18-1h10l1 2-15 3-2 1-11 1h8l-5 3-3 3-2 5 4 3h-6l-6 2 6 3v4h-4l4 5h-9l4 2-2 2-5 1h-6l4 3v3l-7-3-3 2 5 1 5 3v5l-7 1-3-3-4-3 1 4-6 3h16l-12 5-12 4-12 2h-5l-5 2-7 6-11 4h-3l-6 2-6 1-5 3-2 4-3 4-9 5 1 4-4 5-4 6h-6l-5-5h-9l-4-3v-5l-5-8-1-3 2-5-4-6 3-4-2-2 7-6 7-2 3-2 3-5-6 2-2 1-4 1-5-2 2-4 3-2h4l7 1-5-3-3-2-4 1-3-2 7-5-1-1-1-4-1-5-4-2 1-2-8-3-7-1-11 1h-9l-3-2-4-3 11-1h8l-15-2-6-2 2-1 15-3 16-2 2-1-8-2 5-2 14-3h6V8l9-1 11-1h11l2 2 11-3 7 2h5l6 2-7-3 2-1 12-2h12l5-2h12z"/><path id="GT" d="m488 388-1 5-1 7h2l2 1v-1l2 1-3 2-3 2-1 1 1 2-2 1-1 1h0l-1 1-2 2v1l-3-1-3-1-3-1-3-3 1-1 1-2-1-1 3-5h7l1-3h-1l-1-1-1-2-2-2h2l1-4h5z"/><path id="GY" d="m663 464-1 5-4 2 1 1-1 4 2 4h2v4l4 6h-2l-3-1-2 2-2 1h-2l-1 2-2-1-4-3v-3l-2-3 2-5 1-3-1-3h-2l1-3-2-2h-3l-3-4 1-2v-3l4-1 1-1-2-3 1-2 5-4 3 3 4 4v3h2l3 3z"/><path id="HN" d="m520 406-2-1-1 1-2 1h-2l-1 1h-1l-1-1h0l-1 1h-1v2l-2 1-1 1-1 1-1-1-2 1h-2l-1 4h0l-1 1h-2l-1-2h-1v-3h0l-2-1-2 1v-1l-2-1-1-1-2-1 2-1-1-2 1-1 3-2 3-2h0l2-1h3l2 1 3-1h2v-1h2l1 1h2l1-1 3 1h0l2 1 1 2 2 1z"/><path id="HR" d="m1082 208 1 2 2 2-2 2-2-1h-4l-4-1h-3l-1 1-2-1-1 3 3 3 2 1 2 3 2 1 2 3 5 2-1 1-5-2-3-2-5-2-4-5h1l-3-3v-2l-3-1-2 3-1-3v-2h3l1-1 2 1 2 1v-2l2-1v-2l4-2 1 1 4 2 5 2z"/><path id="HT" d="M587 375v4l-1 2-1 1 1 2v2l-4-1h-6l-3 1-3-2 1-2 5 1h4l3-1-3-3 1-2-4-1 2-2h3z"/><path id="HU" d="m1096 192 3 2 1 1-3 2-2 4-3 4-4 1h-3l-4 2-1 1-5-2-4-2-1-1-1-2h-1l1-4-1-2h3v-2l3 1 2 1 4-1v-1h2l2-1h1l2-1 1-1h2z"/><path d="M1668 568h-3l-7-5 5-1 3 2 2 2zm24-9 1 1v2l-4 5-5 1h-1l1-3 3-4zm-39-5 2 1h3l1 3-6 1-4 1h-3l2-4h3zm28 0-1 3-9 2-7-1v-2l5-1 3 2 4-1zm-80-9 11 1 1-3 10 3 2 5 8 1 7 4-6 2-6-3-6 1-5-1-6-1-6-2-4-1-2 1-11-3v-3h-6l5-6h6l5 3h2zm148-3-3 4-1-5 1-2 2-2 1 2zm-42-18-2 2-4-1-1-3h6zm19-2 2 5-5-3-5-1-3 1h-4l2-4h7z" class="Indonesia"/><path d="m1786 519-1 20-2 21-5-5-5-1-2 2h-7l3-5 4-2-1-7-3-5-10-6h-5l-8-6-2 3h-2l-1-2v-3l-5-3 7-2h4l-1-2h-8l-2-4-5-1-3-3 8-2 3-2 9 3 1 2 1 11 6 3 5-6 7-4h5l4 2 4 2zm-90-26-4 6-4 1-6-1h-9l-5 1-1 5 5 6 3-3 11-2-1 3-2-1-3 4-5 2 5 8-1 2 5 8v4l-4 2-2-2 3-5-5 2-2-2 1-2-4-4 1-6-4 2v16l-4 1-2-2 2-5-1-7h-2l-2-4 3-4 1-5 3-10 1-3 5-5 4 2 7 1h7l5-5zm20 2v5h-3l-1 3 2 4-1 1-3-4-1-9 1-5 1-2 1 3 3 1zm-108-6 1 4 4 4 4-1h3l4-3 2-1 6 2 4-1 3-9 2-3 2-7h6l5 1-3 6 4 6v3l6 6-7 1-2 4 1 6-6 4v7l-3 10v-3l-7 3-2-4h-4l-3-2-7 2-2-3h-8l-1-9-2-2-3-5-1-6 1-6zm-23 50h-6l-4-5-8-5-2-4-4-5-3-5-4-9-5-5-1-6-3-5-5-4-3-5-4-4-7-7v-3h3l9 1 5 6 5 5 3 2 6 7h6l4 5 4 5 4 3-2 5 3 3h2l1 4 2 4h4l3 4-2 9z" class="Indonesia"/><path id="IN" d="m1428 308-3 3-1 6 6 2 5 3 8 4 8 1 4 3 4 1 7 1h5v-2l-2-4v-3l3-2 2 6v1l5 2 4-1 4 1 5-1-1-3-2-2 4-1 4-5 5-4 5 1 3-2 4 4-1 2 6 1 1 3-2 1 2 4-5-1-6 4 1 4-2 5v3l-1 6-5-2 1 7-1 2 1 3-2 1-5-10h-1l-1 4-3-3 1-4h2l2-6-3-1h-11l-1-5h-3l-5-3-1 4 5 4-3 2-1 2 3 2v4l3 5 1 5v3l-4-1-7 2 1 5-2 3-8 5-5 7-4 4-5 5 1 2-3 2-5 2-2 1-1 5 1 8 1 5-2 6 1 11-3 1-2 4 2 3-5 1-2 5-2 2-6-6-3-9-3-7-2-3-3-6-2-8-2-4-5-9-4-12-3-9v-7l-2-6-8 4-4-1-8-8 3-2-2-3-7-5 3-5h12l-2-5-3-3-2-5-4-3 5-7 7 1 4-7 2-7 4-6-1-5 4-3-5-4-3-4-3-6 2-2 8 1 6-1 4-5 7 7 1 6 3 3 1 3-4-1 3 7 6 4z"/><path id="IE" d="M957 158v5l-3 5-9 4-7-1 4-7-2-6 7-5 4-2v3l-1 3h3z"/><path id="IR" d="M1229 253h2l5-5h2l2 2-1 3 4 3h1l2 5 6 1 4 3 8 1 8-2v-1l4-1 3-4h4l2-1 4 1 6 3 5 1 7 5 4 1 2 5-1 8v5l2 1-1 3 2 5 1 4 5 1 1 5-4 5 3 4 3 4 6 2 1 6 2 1 1 3-7 3-1 8-11-2-6-2h-6l-4-8-3-1-4 1-5 3-7-2-6-5-5-2-5-6-5-9-3 1-3-2-2 3-4-4v-3h-2v-5l-3-5-7-3-5-6 1-5 2-2-1-4-4-2-4-8-4-5v-2l-2-7 3-2 1 2 3 3z"/><path id="IQ" d="m1224 263 4 8 4 2 1 4-2 2-1 5 5 6 7 3 3 5v5h2v3l4 4-4-1h-3l-4 6-10-1-17-12-8-5-7-2-3-8 11-6 1-8-1-5 3-1 2-4 2-1 6 1 2 1z"/><path id="IS" d="m925 85-2 3 5 4-6 4-13 4-4 1-6-1-12-2 5-2-9-3 8-1v-1l-9-2 4-3 6-1 6 4 7-3 6 1 7-3z"/><path id="IL" d="M1179 288v4h0l-1 2-2-1v4l1 1-1 1v1h2l1 2-2 10-1-1-4-10 2-2h-1l1-3 1-5v-2h2l1-1z"/><path d="m1068 256-1 5v6l-5-3h-2l-8-4 1-3 6 1 5-1zm-34-19 4 5-1 8h-2l-2 2-2-2-1-7-1-4h3z" class="Italy"/><path d="M1056 204v3l1 3-4-1-4 2v5l2 3 5 3 3 6 6 5h4l1 1-1 1 5 3 4 2 4 3 1 1-1 2-3-3-5-1-2 4 4 3v3l-2 1-3 5-2 1v-2l1-4 1-1-2-4-2-3-2-1-2-3-3-1-3-2-4-1-4-3-5-4-4-3-1-7h-3l-4-3-3 1-2 3-3 1 1-3-3-1-1-5 1-2-1-2v-2l2 2 3-1 2-2 1 1h3l1-3 3 1 3-1v-2h3v-1l5-1 2 2z" class="Italy"/><path id="JM" d="m557 387-2 1-3-1-3-2 1-2h3l4 1 3 1 1 2z"/><path id="JO" d="m1198 295-1 1-10 4 6 6-2 1-1 2-4 1-1 2-2 2-6-1v-1l2-10-1-2 1-2-1-4 1-2 6 2 10-6z"/><path d="m1709 283 1 2-1 4-3-2-2 1v4l-5-2-1-3 2-4 3 1 1-3z" class="Japan"/><path d="m1733 263 1 5 2 4v4l-6 3-9 1-4 7-5-3-3-4-8 1-5 3h-6l7 5 1 11-3 3-3-3-1-6-4-2-4-4 4-2 1-4 4-3 2-5 10-2 6 2v-12l5 3 5-6 1-3-1-7-5-8v-4l5-1 8 9 3 5-2 7zm-12-44 5 1 2-3 6 7-7 2v6l-11-4 1 7h-5l-5-6-1-5h6l-5-9-2-5 11 6z" class="Japan"/><path id="KZ" d="m1338 161 5-1 9-6-1 2 9 5 18 16 1-4 8 4 7-2 3 1 4 4 4 1 3 3 6-1 5 4-2 4-4 1 2 6-1 3-11-2 1 11-2 1-9 3 9 11-3 1 2 4-4-1-3-2-8-1h-9l-1 1-9-3-2 1v4l-9-2-3 1v3l-3 1-5 4-1 5h-2l-2-3h-7l-3-6h-2l-2-6-7-5-9 1-6 1-6-6-5-2-9-5h-1l-12 3 6 24h-3l-5-5-3-2-6 2-2 2v-4l-1-3-7-2-4-5-3-2v-2h5l-1-4 4-1 5 1-1-6-2-4h-5l-5-1-5 2-4 2-3-1v-4l-5-4h-3l-5-4 1-5-2-1 3-7 6 4-1-5 8-6 8-1 12 5 6 2 5-2h7l8 3 1-2h7v-3l-10-4 4-3-2-2 4-1-5-4 2-3 17-2 1-1 11-2 3-3 9 1 5 7 4-2 7 2z"/><path id="KE" d="m1224 477-5 7v23l3 6-4 2-1 3h-3v5l-2 2-1 5-3 2-8-7v-3l-20-13v-5l-1-3v0l1-2 3-5 2-4-3-8v-3l-3-4 3-4 4-4 3 1v3l2 2h4l7 6h5l3 1 2-3 5-2 3 2z"/><path id="KG" d="m1401 230-1 2-7 3-1 3h-6l-1 4-5-1-4 2-4 3 1 1-1 2-9 1-7-2h-6v-4l6 2 1-2h4l5-4-7-4-3 2-5-3 3-4h-1v-3l3-1 9 2v-4l2-1 9 3 1-1h9l8 1 3 2z"/><path id="KH" d="m1590 411 2 4v8l-9 5 2 3-5 1-5 3-5-1-2-4-4-6-2-8 3-5 7-2 5 1 5 3 2-5z"/><path id="KR" d="M1653 260v-1h2l1-3h4l2-1v-1l8 8 3 4 4 7-1 4-4 1-3 2-5 1-2-4-1-4-5-7 3-1z"/><path id="KW" d="m1248 309 1 3v2l2 4-4 1-1-3-5-1 3-6z"/><path id="LA" d="m1590 411-6-3-1 5-5-3 1-3v-5l-6-6-1-6-5-5-4-1-1 3h-3l-2-1-6 3v-12h-4l-1-4-2-2v-3l4-4 1 2h3l-2-7 3-1 4 5 3 6h7l3 5-3 2-1 2 7 4 6 8 4 5 5 5 2 4z"/><path id="LB" d="M1179 288h-1l-1 1h-2l2-5 2-4v-1l2 1 2 2-3 3z"/><path id="LR" d="m939 453-1 1 1 3-1 3 1 2 2 1 2 2 1 3h-1v6h-2l-6-3-5-5-5-4-3-4 1-2v-2l3-3 2-3h2l1-1 3 4-1 3 1 1h2l1-3z"/><path id="LY" d="m1123 299-2 3 1 3-1 4 2 5 1 23 1 24 1 12h-7v3l-22-12-23-12-5 3-4 2-3-3-9-3-3-4-4-3-3 1-2-3v-3l-3-5 2-2-1-4 1-4-1-3 1-5v-3l-2-6 2-1 1-3-1-3 4-2 1-2 3-2v-5l7 2h2l4 1 8 3 2 5 5 2 8 2 6 3 3-1 2-3-1-5 1-3 4-3 3-1 8 1 2 3h2l2 1 5 1z"/><path id="LK" d="m1446 462-5 2-3-6-1-9 2-10 4 3 3 5 3 7-1 6z"/><path id="LS" d="m1139 698-2 1-4-5 4-4 3-3 2-1 3 2 1 2-2 3-1 2-3 1z"/><path id="LT" d="m1111 148 1 2-4 2v4l-5 2h-4l-2-2-2-1-1-1v-2l-2-1-5-1-2-5 5-2 8 1 5-1 1 1 2 1z"/><path id="LU" d="m1017 185-2 1-1-1 1-3 1-1 1 2z"/><path id="LV" d="m1113 137 2 1 1 3 2 3-4 3-3 1-5-3-2-1-1-1-5 1-8-1-5 2v-4l1-4 4-2 5 4h4v-4l3-1h3l4 2z"/><path id="MA" d="m975 276 2 4v4l2 7 1 1-1 3-7 1-2 2-3 1-1 5-6 2-2 3-5 2-5 1-9 5v7h-1v4h-3l-2 1h-9l-2 5-2 1-3 8-8 7-1 9-3 3-1 2h-12 0v-3l2-1 2-4v-2l2-4 3-5 2-1 2-3v-4l2-4 4-2 3-7h0l3-2 5-1 5-4 3-2 4-5-1-8 2-6 1-3 4-5 5-2 4-3 4-7 2-4h4l3 3h5l5 1z"/><path id="MD" d="m1129 210-1-3v-5l-4-4-2-2-1-2-2-1 1-1h3l4 2h2l3 2v2l2 1 1 2 2 2v1h1l-2 1h-3v-1h-1v1l-1 3v2z"/><path id="MG" d="M1268 589v8l2 3-1 3-1 2-2-4-1 2 1 4-1 3-2 2v5l-3 8-4 8-4 13-3 8-3 8-4 1-6 3-2-1-5-3-1-3v-6l-1-5-1-5 2-4 2-1v-2l3-5 1-4-1-3-1-5v-5l2-4 1-4h3l3-2 3-1h2l3-4 5-4 2-3v-3l2 1 3-4 1-4 2-3 1 3 2 3z"/><path id="MX" d="M449 336h3l-4 5-1 5-2 9-1 3v3l1 3 1 5 3 5v4l2 3 6 2 2 2 5-1 4-1 5-1 3-1 4-3 2-4 1-5 1-2 4-2 6-1h9l1 1-1 3-3 4-2 4 1 1-1 3-2 5-2-2h-2l-2 4-1-1-1 1v1l-5-1h-5l-1 4h-2l1 2 2 2 1 1 1 1-1 2h-7l-3 5v3l-1 2-5-7-3-2-4-2h-4l-4 3h-3l-4-1-4-2-5-2-4-1-6-3-4-3-1-2-3-1-6-2-2-2-5-4-2-4-1-3 2-1v-2l1-1 1-3-2-3v-2l-1-3-4-7-5-5-2-4-4-2v-2l1-4-2-1-3-4v-4l-3-1-2-3-2-3 1-2-2-5v-5l1-2-3-3h-2l-3-1-1 2-1 3-1 5 1 3 3 4 1 2h0v2h1v5l2 1v2l3 4v6l1 2 1 3v4h3l1 3 2 3-1 1-2 2h-1l-1-4-3-3-3-3-3-2 1-5v-3l-2-2-3-3-1 1-1-2-3-1-2-4v-1l2 1 3-3 1-3-3-4-2-2-1-4-1-4-1-5v-6l7-1h7l-1 1 7 3 11 5h15l1-3h9l1 2 2 2 3 3 1 3v4l2 2 4 2 5-5h5l3 2 1 5 1 3 3 4v5l1 3 4 2z"/><path id="MK" d="M1106 237h-1l-1 1h-3l-2 1-3 1-3-2-1-3 1-2h1v-1l3-1h1l2-1h2l3 2z"/><path id="ML" d="M1010 379v15l-3 4v4l-5 1h-8l-2 3h-7l-2-1-3 1-5 2-1 2-4 3-1 2-2 1-3-1-2 2-1 4-4 6v2l-1 3v3l-2 1-2 1-1-3-1 1h-1l-1 2h-5l-1-1h-1l-2-2 1-1-1-1h-1v-2l1-1-2-3-1-2-1-1h-1l-1 1h-2l-2 2-2-1-2-1-1-1-1 1h-1v-4l-1-2-2-2-1-4v-4l2-1 1-4h2l4 2 3-2 2 1 1-2h22l2-4-1-1-3-28-2-27h8l19 14 19 14 1 3 3 1 3 1v5z"/><path id="MM" d="m1548 364-4 4v3l-3 1-3 3h-4l-2 7-2 1 4 6 4 5 3 4-2 6-2 1 2 3 5 5 1 4v3l2 6-2 6-2 6-1-5 1-5-2-3v-7l-3-4-3-7-2-8-3-6-3 3-6 5-3-1-4-1 1-8-2-6-5-7v-3l-3-1-5-5-1-5 2 1v-5l2-1-1-3 1-2-1-7 5 2 1-6v-3l2-5-1-4 6-4 5 1-2-4 2-1-1-3h3l3 4 2 1 2 5 1 5-5 6 1 7 6-1 2 6 4 2-1 5 5 2 2 1 4-1z"/><path id="ME" d="m1091 227-1 2h-2v-1l-2 3 1 2h-2l-1-2-3-2 1-1v-3l2-2h1l1 1 1 1h2z"/><path id="MN" d="m1496 182 4-2h11l7 3 5 4h4l7 1 4-2 6-1 4-4h4l3 2h6l1 4v7l3 2 2-1 6 1 2-2 5 2 7 4 1 3-4-1-7 1-2 2-2 4-6 2-3 4-6-2h-4v4l3 2 2 2-3 2-2 4-5 2h-7l-7 2-5 4-3-2h-6l-10-4-5-1-7 1-11-1h-6l-4-4-5-6-4-1-8-4h-7l-6-1-3-3-2-8-6-5-8-2-5-3-4-5 5-1 7-5 6-3 5 2h5l5 3h5l8 2 2-5-4-3 2-7 7 3 4 1 7 1 4 5z"/><path id="MZ" d="M1167 674h-4l-1-3v-3l-1-3 2-7-1-4-3-9 7-8 1-4 1-1 1-4-1-1 1-5 1-5v-8l-2-2h-3l-1-2-3-1h-5v-7l17-5 3 3 2-1 2 2v2l-1 3v5l4 4 1-5 3-1v-8l-2-5-2-2h-1v-7l1-6 2-1 7 2 2-1h4l2-2h3l6-2 5-4 1 3-1 6 1 6v13l-2 5-2 4-4 4-5 3-6 3-7 7-2 1-4 4-3 2-1 4 3 5 1 4v2h1l-1 6-1 3 1 1-1 3-2 2-5 2-7 4-2 2v3h1z"/><path id="MR" d="M959 342h-8l2 27 3 28 1 1-2 4h-22l-1 2-2-1-3 2-4-2h-2l-1 4-2 1-4-4-3-5-4-2-2-2h-3l-3 2-3-1-2 2v-3l1-3 1-6v-7l-1-3 1-3-2-3-2-3 1-2h22l-1-9 1-4h5l1-17 18 1v-10z"/><path id="MW" d="m1182 589 2 2 2 5v8l-3 1-1 5-4-4v-5l1-3v-2l-2-2-2 1-3-4-3-1 2-6 2-2-1-6 1-5 1-2-1-5-3-3 6 1 1 2v1l2 4v8l-2 3 2 5-1 3 2 2-1 2 1 1 1-1 2 2v-4z"/><path d="M1564 462h2l3 4 3 5v9l1 4 2 2 2 5v2l-4 1-5-5-7-5-1-3-3-5-1-5-2-3v-5l-1-3v-1l5 3 1 3 4-1zm90 13-5-1h-6l-2 7-2 3-3 9-4 1-6-2-2 1-4 3h-3l-4 1-4-4-1-4 4 2 5-1 1-6 2-1 7-1 4-5 2-4 3 3 1-2h3v-7l4-5 3-5h2l3 4v2l4 2 5 2v3h-4l1 3z" class="Malaysia"/><path id="NA" d="m1116 614 5-1h3l3 2v0l-4 2h-1l-4 2-2-3-9 3h-4l-1 23h-5l-1 19-1 23-5 4h-3l-3-1h-3l-1-3-2-2-2 3-4-5-2-4-1-7-1-4-2-10v-8l-1-3-2-3-2-5-3-8-1-4-5-6v-5l3-1 3-1h4l3 3 1-1h22l4 3 14 1z"/><path id="NE" d="m1069 355 1 10 2 2v2l3 2-1 3-2 13v8l-7 6-3 9 3 2v4h3v3l-2 1v2h-1l-4-7h-1l-4 3-5-2h-3l-1 1h-4l-3 2-3 1-7-4-2 2h-3l-2-3-6-2-6 1-2 1v4l-2 2v6l-5-4h-2l-2 2 1-4-7-2v-3l-3-4-1-3v-3h4l2-3h8l5-1v-4l3-4v-15l8-3 16-13 19-12 9 3 3 3z"/><path id="NG" d="m1066 422 3 2-1 1v2l-5 6-1 4-1 3-1 1-2 5-3 3v3l-2 2v3l-4 2-3-2h-2l-4 3h-1l-3 7-1 4-6 3-3-1-2 2h-4l-3-5-2-4-4-4h-9v-15l1-4 1-2 3-4v-2l1-2-2-4 1-2v-6l2-2v-4l2-1 6-1 6 2 2 3h3l2-2 7 3h3l3-2h4l1-1h3l5 2 4-4 1 1z"/><path id="NI" d="M520 406v4l-1 2-1 3-1 2v5l-1 1v4l-1 2v2l1 1-2 1h-1l-1-2h-3l-4-1-1 1-2-2-2-3-1-2-3-2-2-3 1-1v1l1-1h2l1-1h0l1-4h2l2-1 1 1 1-1 1-1 2-1v-2h1l1-1h0l1 1h1l1-1h2l2-1 1-1z"/><path d="m1114 68-7 2h-3l1-4-6-2-6 2-1 4-3 2-5-1h-5l-5-2-3 1h-2v4l-8-1-1 3h-4l-2 4-3 6-6 8 2 2-2 2h-4l-2 5 1 8 3 3-1 7-3 4-2 3-4-3-8 6-6 2-7-3-2-6-2-14 4-4 12-5 8-5 7-8 9-11 6-4 11-7 8-2h7l5-4h8l7-1 13 4-5 1zm-37-43-8 2-7-1 2-1-2-2 7-1 2 2zm-26-8 13 3-9 2-1 3-3 1-1 4h-5l-8-3 3-1-6-2-7-4-4-3 10-2 2 2h5l1-2h5zm24-3 8 1-5 3h-10l-10-1-1-1h-5l-5-2 11-1 5 1 3-1z" class="Norway"/><path id="NP" d="M1469 323v3l2 4v2h-5l-7-1-4-1-4-3-8-1-7-3-6-4-6-2 1-6 3-3 2-1 4 2 7 4 3 1 3 3 4 1 5 3 7 1z"/><path d="m1284 395-2-5-6-10 17-7 2-12-3-5v-3l2-2-1-3 3-1-1-1v-4h2l3 4 4 2 4 1 3 1 3 4 2 2 2 1v2l-2 3v2l-3 2-1 5-3-1-1 2v3l1 4-1 1h-2l-4 3v3l-1 1h-4l-2 2 1 2-3 2-3-1-4 3zm12-58-1-3 1-2 1 1v3z" class="Oman"/><path id="PK" d="m1402 274-4 5-6 1-8-1-2 2 3 6 3 4 5 4-4 3 1 5-4 6-2 7-5 7-6-1-5 7 4 3 1 5 4 3 2 5h-12l-4 5-4-2-2-5-5-4-10 1h-9l-7 1 1-8 7-3-1-3-2-1-1-6-6-2-3-4-3-4 9 4 6-1h3l1-1 4 1 7-3-1-5 2-4h4v-2l4-1 2 1 2-2-1-4 2-4 3-1-3-5 5 1 1-3-1-2 2-3-2-3-1-3 2-3 5-1 6-1 3-1 2-1 5 3 3 5z"/><path id="PA" d="M549 446v1l1 4-1 2-2-1-1 3-2-1-1-4 2-2h-2l-1-2-3-2h-2l-1 3-3 1h-1v2l2 3-2 1v1h-3l-1-3-1 1-1-1-1-2-3-1h-4v1-5l1-1h-1v-3l2-1 2 3v1h3l1 1h3l3-2 3-1 2-2h3v1h3l3 1 1 2z"/><path id="PE" d="M591 529h-6v1l-5 1-6 5-1 3-1 2 1 3-4 2 1 3-2 1 3 6 3 4-1 3h4l2 3h5l4-3 1 9 2 1 3-1 6 10-1 3v10l-2 3 1 2-1 2 3 6-3 7-1 3-3 2-6-4v-3l-12-6-11-7-4-4-3-5 1-2-6-9-6-12-6-12-3-3-2-5-4-4-4-3 1-3-3-6 2-4 4-4 1 2-1 2v2h4l3 4 3-3 1-4 3-6 7-2 6-7 2-4-1-5 2-1 3 3 2 3 3 2 3 7h4l4-1 2 1 3-1 4 3-3 7h2z"/><path d="M1701 448v4l1 4-2 6-2-7-2 3 2 5-2 3-7-4-2-4 2-3-4-3-2 2h-2l-4 4-1-2 2-6 3-2 3-2 2 3 4-2 1-3h4l-1-5 5 3 1 3zm-15-12-2 2-1 4-2 2-4-4 1-2 2-2v-4h3l-1 4 4-6zm-30 6-8 6 3-4 4-4 3-5 2-6 2 5-4 4zm17-16 4 2h3v2l-2 3-3 2-1-3v-3zm20-2 3 7-5-2v2l2 4-2 2-1-5h-2l-1-4h3v-2l-4-5h5zm-23-6-1 5-2-3-4-5 5 1zm-6-35 4 2 1-2 1 2-1 3 3 4-1 5-3 3v5l2 5 3 1 3-1 7 3v4l2 1v3l-5-3-2-3-1 2-4-4-5 1-3-1-1-3 2-1-2-2v2l-4-3-1-3-1-6 3 2-2-10 1-6z" class="Philippines"/><path d="M1868 546h-2l-2-2-2-4-1-5 1-1 1 2 1 2 2 4 3 2zm-21-9-3 1-1 1-3 2-3 1h-4l-4-2-3-1v-2l5 1 4-1 1-3h1v3h3l2-2 3-3v-3h3l1 1v3zm-64 23 2-21 1-21 9 5 10 4 4 3 3 3 1 4 9 4 1 3-5 1 1 4 4 4 3 7h4l-1 3 4 1-1 1 5 3-1 2h-3l-2-1-4-1-6-1-4-4-3-4-2-5-7-3-5 2-4 2v4l-4 3-3-1zm71-29-2 1-1-3-1-3-3-2-3-3-4-2 2-1 3 2 2 1 2 2 2 2 2 2z" class="Papua New Guinea"/><path id="PL" d="m1080 155 6 1 9-1 2 1 2 2v3l2 2v2l-3 2 2 3 1 2 3 6v1l-3 1-3 5 1 3h-1l-5-3-3 1h-3l-3 1-2-2-2 1v-1l-3-3h-4v-2l-4-1v2l-3-2v-1l-4-1-2-2-3-4 1-2-2-3-2-2 1-2-1-3 3-2 7-3 6-2 5 1v2z"/><path id="KP" d="m1660 230 2 1zl-1 2-1 2 3 4-2 2v1l-1 2-3 1-1 2 1 2v1l2 1 5 3v1l-2 1h-4l-1 3h-2v0l-3-1v2h-2v-1l-2-1-2-1v-3h1l-1-2v-3l-1-1-4-1-3-1 2-5 4-3 1-5 4 3h4l-3-4 7-2v-4z"/><path id="PY" d="m663 631 2 4v9l6 1 2-1 4 1 1 2 1 6 1 3h2l2-1 2 1 1 4-1 3v4l-1 6-4 5-4 1-7-1-5-2 4-10-1-3-6-2-7-5-5-1-11-10 1-8v-3l2-6 10-2h5l5 3z"/><path id="PS" d="m1178 294 1 4-1 2h-2v-1l1-1-1-1v-4z"/><path id="QA" d="M1270 344h-1l-2-1-1-5 1-3 2-1 1 2 1 4z"/><path id="RO" d="m1119 193 2 1 1 2 2 2 4 4v5l1 3 3 1 2-1 2 1 1 2-2 1h-2v8l-3-1-4-2-6 1-3 2-7-1-4-1-2 1-2-3-1-1 1-1-1-1-2 2-3-2-1-3-3-1-1-2-3-3 4-1 3-4 2-4 3-2 2-1 3 1h3l3 1 1-1h4l1-2z"/><path id="RW" d="m1159 509 2 4v4h-5l-2 4-3-1v-3l1-1v-4l2-2 1 1z"/><path id="EH" d="M939 324v1l-1 10-18-1v17h-5l-1 4v9h-21l-2 2 1-3h12l1-2 2-3 2-9 8-7 3-8 2-1 2-5h9l2-1h3v-4z"/><path id="SA" d="m1241 315 5 1 1 3h4l3 5 3 2 1 2 4 3 1 2-1 2 1 2 2 2 1 2 1 2 2 1h1l1 2 1 2 2 6 17 3 1-1 3 5-2 12-17 7-15 2-5 3-4 7-3 1-1-2h-8l-1-1h-6l-2 1-2-2-1 3v3l-2 2-1-3-2-2v-2l-3-3-4-5-1-5-5-5-2-1-4-6-1-4v-4l-4-7-2-3-3-1-3-4 1-1-2-4-2-1-2-5-4-5-3-4h-3l1-4v-5l6 1 2-2 1-2 5-1v-2l2-1-6-6 10-4 1-1 7 2 9 5 16 13z"/><path id="SD" d="m1191 409-1 6-2 6-3 3-2 5-1 3-2 2-2 6v1h-1v-5l-3-3-1-5v-4l-2-1-1 2h-3l1 2 1 4-3 3-3 5-3 1-4-4-3 1v2l-3 1v2h-6l-1-2h-4l-2 1h-1l-3-4-1-2-4 1-2 3-1 6-2 1-2 1v-1l-2-2-1-2 1-2v-3l-3-4-1-3v-1l-2-2v-4l-1-2h-2v-2l2-3-1-3 2-2-1-1 1-4 2-5 5 1-1-26v-3h7l-1-12h66l2 6-1 1 1 7 3 7 2 2 3 2-3 4-4 1-1 2-1 4-2 10z"/><path id="SS" d="M1178 441v5l-1 2h-2l-2 4h3l3 3 1 3 3 2 3 7-4 4-3 4-4 3h-4l-4 1-4-1-2 1-5-4-1-3-4 2-2-1-2 1h-2l-4-6-1-2-4-2-1-4-3-3-4-3v-2l-3-3-4-2 2-1 2-1 1-6 2-3 4-1 1 2 3 4h1l2-1h4l1 2h6v-2l3-1v-2l3-1 4 4 3-1 3-5 3-3-1-4-1-2h3l1-2 2 1v4l1 5 3 3v5z"/><path id="SN" d="M918 408v4l1 4 2 1 1 3v2h-5l-1 1-4-2h-17l-3 1v-5h7l2-2 3 1 2 1 3-2-2-2-1 1h-2l-2-1h-2l-1 1-7 1-2-5-3-3 3-1 3-4 1-4 2-2 3 1 3-2h3l2 2 4 2 3 5z"/><path id="SL" d="m929 448-3 3-3 3v2l-1 2h-2l-4-3-3-3-1-3v-4l3-3v-2l1-1h2l1-2h5l1 3 1 2v2l1 2v2z"/><path id="SV" d="m493 416-1 1h-5l-3-2h-3l-1-1v-1l2-2 1-1h0l1-1 2 1 1 1 2 1v1l2-1 2 1h0z"/><path id="RS" d="m1102 218-1 2 1 2 2 3-1 2-1 2h1l-1 1-2 1h-2l-1-1h1v-2h0l-1-1h-1l-1-1-1-1-1-1-1 1v2h-1 0l-2-2h-2l-1-1-1-1 1-1v-2l-2-3 1-3h-2l2-2-2-2-2-2 4-2h3l3 3 1 2 3 1 1 3 3 2 2-2 1 1-1 1z"/><path id="SR" d="m681 465-3 5v5l2 4-1 2v3l-2 3-3-1h-5l-1 2 1 1v1h-3l-4-6v-4h-2l-2-4 1-4-1-1 4-2 1-6 7 2v-1l5-1z"/><path id="SK" d="m1098 188-1 1-1 3h-1l-5-1h-2l-1 1-2 1h-1l-2 1h-2v1l-4 1-2-1-3-1-1-2 1-1v-2h4v-1h1v-1l1-1 1-1h1l1 1 2-1 2 2 3-1h3l3-1z"/><path id="SI" d="m1070 204-4 2v2l-2 1v1h-2l-2-1-1 1h-3 1l-2-3 1-3h4l2-1h5l1-1h1z"/><path id="SE" d="m1088 87-7 2-3 3 1 4-6 5-8 5-2 8 4 4 4 3-3 7-4 1-1 10-2 6-6-1-2 5h-6l-1-6-5-6-4-9 2-3 3-4 1-7-3-3-1-8 2-5h4l2-2-2-2 6-8 3-6 2-4h4l1-3 8 1v-4h2l6 3 8 3 1 9z"/><path id="SZ" d="M1162 668v3l1 3-2 2-3 1-3-3v-3l2-2v-2h2z"/><path id="SY" d="m1195 288-10 6-6-2h0l1-1-1-3 1-3 3-3-1-2-3-1-1-5 1-2 1-2 1-1v-3l2 1 6-2 3 1h4l6-2h3l6-1-2 4-3 1 1 5-1 8z"/><path id="TD" d="m1119 376 1 26-5-1-2 5-1 4 1 1-2 2 1 3-2 3v2h2l1 2v4l2 2v1l-3 1-3 3-4 7-5 3h-7v2l-3 3-2 2-7 3-2-2h-1l-1 2h-4l1-2-2-4-1-3-2-1-4-3 1-3h8l-4-6 1-4-1-5-2-4v-3h-3v-4l-3-2 3-9 7-6v-8l2-13 1-3-3-2v-2l-2-2-1-10 5-3 23 12z"/><path id="TG" d="M991 431v4l1 1 2 3 1 3 1 1v15l1 4-5 2-1-3-1-4-1-3 1-6-1-2-1-5v-5l-2-3 1-2z"/><path id="TH" d="m1578 410-6-1-7 2-3 5 2 8-5-3h-5v-5h-5l1 7-3 9-1 6 1 4 3 1 3 6 1 5 4 4h3l3 4-1 2-4 1-1-3-4-3-1 1-3-2-1-3-3-4-3-3-1 4-1-4v-4l2-6 2-7 2-6-2-5v-3l-1-4-5-5-2-3 2-2 2-5-3-4-4-5-4-6 2-1 2-7h4l3-3 3-1 2 2 1 4h4v7l1 5 5-3 2 1 3-1 1-2 4 1 5 5 1 6 6 6v5z"/><path id="TJ" d="m1357 244-1 1h-6v3h6l7 2 9-1 3 6 2-1 4 2v2l2 4h-5l-4-1-3 3-2 1-1 1-3-2-1-6h-2v-2l-3-1-2 2 1 3-1 1-3-1-1 3-2-1-4 2-1-1 1-6-3-5-4-1 1-3h4l2-3v-5l7-1v3l1 2z"/><path id="TM" d="M1338 262h-1l-3-2-1 2-4 2v5l-2 2-4 1v3h-4l-6-2-2-5-4-1-7-5-5-1-6-3-4-1-2 1h-4l-3 4-4 1-2-5-1-6-4-2v-5h-3v-6l5 2 4-2-5-4-2-3-4 1 1 5-3-4 2-2 5-2 4 2 5 5h9l-2-4 4-2 3-3 8 3 2 5 2 1h6l2 1 4 7 7 4 4 3 7 3 7 3z"/><path id="TL" d="M1693 562v-2l-1-1 1-2 5-1h4l2-1 2 1-2 2-6 2z"/><path id="TN" d="M1048 289v5l-2 2-2 2-4 2 1 3v3l-3 1-3-11-3-3v-1l-5-4v-5l3-4 1-5-1-6 1-3 6-3 3 1v3l5-2v1l-2 3v3l2 2-1 5-3 3 1 4h3l1 3z"/><path d="M1202 235h5l6 3 1 2v3l4 2 3 2-4 2 3 7v2l4 5-3 1-2-1-6-1-2 1-6 1h-3l-6 2h-4l-3-1-6 2-2-2v4l-1 1-1 2-2-3 1-3-3 1-5-1-3 3-8 1-4-3-6-1-1 3-4 1-5-4-6 1-4-7-4-3 2-5-4-3 6-7h8l1-5 10 1 6-4 6-2h8l10 5 8 2 6-1 4 1zm-80 5 1-1 1-4-2-1 5-2h4l1 3 5 2-1 1-6 1-2 2-4 3-2-3z" class="Turkey"/><path id="TW" d="m1658 356-1 5-4-6-2-4 2-7 3-5 3 2v4z"/><path id="TZ" d="M1167 508v4l-1 5 1 2 3-1 3-1 1 1 3-1-2-3 2-3 3-2 20 13v3l8 7-2 8v3l3 3 1 1-2 4v5l2 4 2 7 2 1-5 4-6 2h-3l-3 2h-3l-2 1-7-2h-2 0l-2-2v-7l-3-3v1l-1-2-6-1-3-2-3-1-3-1h0l-3-7v-4l-5-4 2-3-1-2v-3l-1-1v-3h1l2-2 2-3 2-2v-2l-2-1v-3h2v-4l-2-4 2-1z"/><path id="UG" d="m1179 475 3 4v3l3 8-2 4-3 4-1 3v0h-1l-3-1-2 1-4 1-2 4v2h-6l-2 1-4 2-1-1v-4l1-3 1-5 1-3 2-3 2-2 2-2-2-1v-8l2-2 4 2 4-2h4z"/><path id="UA" d="m1157 175 3 2v1l6 3 4-1 3 3 3-1 8 2v2l-1 4 2 3v2l-5 1-2 1v3l-4 1-3 2h-4l-4 2 1 4 2 2 6-1-1 3-5 1-7 3-3-1 1-3-6-2 1-1 4-2-1-1-9-2v-2h-5l-1 4-3 4-3-1-2 1-3-1h2v-3l1-2v-1h1v1h3l2-1h-1v-1l-2-2-1-2-2-1v-2l-3-2h-2l-4-2h-3l-1 1h-2l-1 2h-4l-1 1-3-1h-3l-3-1-2 1-1-1-3-2 1-3 1-1h1l-1-3 3-5 3-1v-1l-3-6h2l3-2h3l5 1 6 1h4l2 1 1-1 2 2 4-1 2 1v-3l1-2h6l1-1h7l3 3v3z"/><path id="UY" d="m700 719-2 4-5 3-4-1-3 1-6-3h-3l-4-3-1-5 1-1-1-6v-7l1-5 3-1 7 5h1l7 4 5 4 3 4-1 3z"/><path id="UZ" d="M1353 231h1l-3 4 5 3 3-2 7 4-5 4h-6l-1-2v-3l-7 2v4l-2 3h-4l-1 3 5 1 2 5-1 6-5-1h-3v-4l-8-3-6-3-5-3-7-4-4-7-2-1h-6l-2-1-2-5-8-3-3 3-4 3 2 3h-6l-6-24 12-3h1l9 5 5 2 6 6 6-1 9-1 7 5 2 6h2l3 6h7l2 3h2l1-5 5-4z"/><path id="VE" d="m649 448-5 4v2l1 3-1 1-4 1v3l-1 2 3 4 1 2-2 3-6 2-4 1-2 2-5-2-4-1-1 1 3 1-1 5 1 4h5v2l-4 2-1 2-2 1-4 2-1 2h-5l-3-3-1-7-2-2-2-1 3-3v-2l-2-2-1-4 1-5 1-2 1-3-2-1h-7l-2 1-4-6-3-1-8 1-1-2-1-1v-6l-1-2-1-2-3-1 2-4 1-4 2-3 2-1 2-4 3-1v2l-3 1 1 2v4l-3 4 2 5 3-1 1-4-1-3v-5l7-2-1-3 2-2 2 4h4l3 4 1 2h11l3 2 4 1 3-2v-1l8-1h6l-5 2 2 3h5l4 4 1 5h3z"/><path id="VN" d="m1587 364-7 5-4 6v5l5 6 7 9 5 4 4 5 4 12 1 11-5 4-6 4-4 6-6 6-3-5 1-4-4-4 5-2 6-1-3-3 9-5v-8l-2-4v-7l-2-4-5-5-4-5-6-8-7-4 1-2 3-2-3-6h-7l-3-5-4-5 3-2h4l5-1 4-3 4 2 5 1v4l3 3z"/><path id="YE" d="m1284 395-4 2-1 2v3l-6 2-8 3-5 5h-4l-3 3-4 1h-6l-1 2-2 1v1h-3l-2 1h-4l-2-4v-4l-1-2-1-4-2-3h1v-7l2-2v-3l1-3 2 2 2-1h7l6 1h2l1 2 3-1 3-7 5-3 16-2 6 10z"/><path id="ZM" d="m1162 557 3 1 3 1 3 2 3 3 1 5-1 2-1 5 1 6-2 2-2 6 3 2-17 5v4l-4 1-3 3-1 2-2 1-5 5-3 4h-2l-2-1h-6l-1-1v0l-3-2h-3l-5 1-3-4-4-5 1-20h12l-1-2 1-3-1-3 1-3-1-2h2v2h3l4 1 2 3h4l3-2 2 4 4 1 2 2 2 4h4v-7l-1 1-4-2-2-1 1-7 1-7-1-3 2-4 1-1 8-1h1v1l1 1 2 1z"/><path id="ZW" d="m1159 645-2-1-2 1-3-1h-2l-4-3-4-1-2-4 1-3h-3l-6-7-1-4-2-1-1-5h6l2 1h1l4-4 5-5 2-1 1-2 3-3 4-1v3h5l3 1 1 2h2l3 2v8l-1 5-1 4 1 2-1 4-1 1-1 4z"/><path id="SO" d="m1222 513-3-6v-23l4-7 2-2h4l5-5h7l15-20h-4l-19-7-2-2-2-4-3-3 2-2 1-4 2 1 2 3 2 3h3l5-2 6-1 5-2h3l2-1h3l2-1 3-1h3l2-2h2v9l-1 2-1 7-3 7-3 8-5 10-4 7-7 8-5 6-9 6-5 5-6 8-2 3z"/><path id="XK" d="M1098 231h-1l-3 1v1h-1l-1-2-1-1-1-1 1-2h1v-2l1-1 1 1 1 1 1 1h1l1 1h0v2z"/><path id="ZA" d="m1159 645 3 9 1 4-2 7 1 3-3-1h-2v2l-2 2v2l3 4 3-1 2-3h4l-2 5-1 6-2 2-4 4-1 1-2 3-2 3-4 5-6 6-4 4-5 3-6 3h-2l-1 2-3-1-3 1-6-1-3 1-2-1-6 3-5 1-3 2h-3l-2-2h-2l-2-3v1l-1-2 1-4-2-4 2-1v-5l-3-6-3-5v0l-3-9 3-3 2 2v3h3l3 1h3l5-4 1-23 2 1 3 6-1 4 1 2 4-1 3-3 3-1 1-4 3-1 2 1 3 2h4l4-2v-2l2-3h3l1-3 2-4 6-5 8-4h2l3 1 1-1zm-20 53 1-2 3-1 1-2 2-3-1-2-3-2-2 1-3 3-4 4 4 5z"/><path d="m1886 764-1 3 6-3v3l-3 3-4 3-7 4-5 3v3h-4l-6 3-5 4-8 6-7 3-4 2h-4l-2-3h-5l1-2 7-5 11-6 4-1 6-3 7-3 6-3 6-5 3-2 3-3 6-3zm29-30v7l3-5 1 2-2 5 2 2h4l4-2 3 1-6 5-4 4h-4l-3 2-1 3-2 1-4 3-6 5-6 2v-1l-1-1 7-6 1-3-4-3 2-2 5-2 4-5 3-4v-5l1-1-1-2v-11h2l1 4 3 1z" class="New Zealand"/><path d="m655 838 6 13h5l3 1v2l-4 2h-2l-3-1-4-2h-6l-7-4-7-3-9-7 4 1 9 4 7 3 1-3v-4l3-3z" class="Chile"/><path d="m614 648 1 1-1 7-6 3 2 11-1 2 2 3-3 4-3 6-1 5 2 7-2 6 5 11 2 2 1 5-2 7 2 5-3 4 1 6 4 6-3 3v5l1 7 3 8-1 1 3 7 4 3-1 2 3 2 1 2-2 1 2 4 1 8-1 6 2 3v4l-3 2 3 7 3 2h3l2 4 4 4 12 1 5 1h-5l-1 1-4 3 2 5h-2l-6-2-8-4-7-3-4-4v-4l-4-4-5-11v-6l3-4-8-2 2-6-2-10 7 2-2-13-4-2 1 8-3-1-2-9-2-12 1-4-3-6-2-8h2v-10l2-10v-10l-4-10 1-5-2-8 2-8-1-12v-28l-2-10-2-9 3-2 1-3 3 4 2 5 3 2-1 7 3 7 4 9z" class="Chile"/><path id="NL" d="m1017 177-3-1-3-3-5 1h-3l2-2 4-9 7-3 4 1v2l-1 5-1 3h-3z"/><path id="PT" d="m947 264-2 1-3-1-3 1 1-5v-4h-3l-1-3 1-4 2-2 1-3 1-4v-2l-1-3v-2l2-1 2-1 1 3h3l1-1h3l1 3-2 2v5l-1 1-1 3-2 1 2 3-1 5 1 1v2l-2 2z"/><path d="m1690 177 13 11-9-2 4 9 10 7 3 4-7-4v5l-5-5-3-6-6-7-2-5-7-8-8-6-7-8 2-3-4-3 1-1 5 4 7 6 5 6zm-595-22-9 1-6-1 1-3 6-2 5 1 2 1v2zm453-107h-14l-1-1v-2h4l9 2zm13-9-1 2-7-1-10-2-2-1h8zm-25-3 3 4h-15l-4 1-13-3-3-4 3-1 10 1zm-317 25-2 1-14-1-2-2-8-2-2-3 3-1-1-3 5-4h-4l7-5-3-2 7-3 11-3 11-1 5-2h7l4 1-1 2-12 3-9 2-9 5-3 5-3 5 3 4z" class="Russian Federation"/><path d="m1662 231-2-1-2-3 3-1-4-7-5-5 3-3 7 2-1-7-2-6v-3l-1-6-7 2-3 3h-7l-6-6-9-4-10-2-7-6-4-4-4-3-8-6-6-2-8-2h-6l-5 1-2 3 4 1 2 4-1 2v6l2 3-5 4-7-2h-6l-3-2h-4l-4 4-6 1-4 2-7-1h-4l-5-4-7-3h-11l-4 2-8-3-4-5-7-1-4-1-7-3-2 7 4 3-2 5-8-2h-5l-5-3h-5l-5-2-6 3-7 5-5 1-1 1-5-4-6 1-3-3-4-1-4-3-4-2-6 2-8-3-1 3-19-16-8-5 1-2-9 6-5 1-1-4-7-2-4 2-5-7-9-1-3 3-11 2-1 1-17 2-2 3 5 4-4 1 2 2-4 3 10 4-1 3h-7v2l-8-3h-7l-5 2-6-2-12-5-8 1-8 6 1 5-6-4-3 7 2 1-2 5 6 4h3l5 4v4l3 1-2 3-4 1-4 7 6 6v4l8 8-3 2v2l-3-1-4-4h-2l-3-1-2-3-5-1-3 1-1-1-8-3-8-1-4-2-1 1-7-5-6-2-6-4 4-1 3-5-3-3 7-2-1-2-4 1v-3l2-1 5-1v-2l-2-3 2-4-1-1-8-2h-3l-3-3-4 1-6-2-1-2-2-2-4-1-1-2 1-1-3-3h-7l-1 1h-2l-2-4-1-2h5l1-2-1-1-4-1v-1l-2-1-4-4 1-2-1-3-5-1h-2l-1-1-6-2-2-3-1-3-2-1 1-2-2-6 3-3-1-1 4-4-5-3 8-7 3-3 1-3-7-4 1-4-5-4 1-5-6-6 3-4-8-4v-4h3l7-3 3-1 8 3 12 1 18 6 4 3 1 4-4 2-6 2-20-4h-3l8 5 1 2 2 6 6 2 4 1-1-3-3-2 2-2 12 3 3-1-4-4 8-6 4 1 4 2 2-4-5-4 1-3-5-3 13 2 3 3h-5l1 3 4 2 6-1v-3l8-3 12-5h3l-2 4h5l2-2h8l5-2 6 3 3-3-6-3 1-2 13 1 7 2 19 6 1-2-6-3-1-1-5-1v-3l-5-4-1-1 4-5-1-5 3-1 11 1 3 3-1 5 4 1 4 4 3 7 7 4 1 3-4 8 5 1 1-2 4-1-1-3 2-3-4-3-1-4h-5l-2-3-1-5-8-5 5-3-4-4h2l4 3 2 5 5 1-4-4 5-2h8l9 3-7-5-4-5 5-1h10l8-1-6-2 1-3 5-1 5-2 9-1v-1l9-1 4 2 6-3h7l-2-2 1-2 6-2 9 1-4 2h9l5 3 1-1h11l12 2 5 2 3 2-2 2-7 3-1 1 5 1 8 1 2-1 6 4v-2l5-1 14 1 4 3h17l-5-3h16l10 3 6 3v3l10 4 9 2-3-6 10 3 5-2 9 2 1-2 8 1-9-5 2-2 40 3 8 4 16 4 15-1h9l7 3 5 4 7 1 4-1h7l10 1 7-1 14 5 2-2-8-3-2-2 15 1h8l16 2 10 3 33 22-2 2h-6l8 3 9 5 4 1 4 2 1 2-10-1-7 4-3 1-1 4-2 3 1 3-11-4-6 5-5-3-1 3-7-1 3 4 1 6 3 2 7 2 9 8-4 1 3 5 5 2-5 3 5 7-6 2 5 6-2 6-5-5-11-8-16-14-7-8v-4l-2-3 5-1v-8l1-6 2-4-6-8h-5l3 5-3 6-13-7-9 2v10l8 3-9 2-6 1-4-5-8-1-3 3-15-1-13 2-4 12-5 14 9 1 5 4 6 1 1-3h5l13 7 5 5 1 6 6 8 5 10-1 9 1 4-2 7-2 8-1 3-4 4h-4l-5-3-4 5zM1367 23l-18 2-1-6 2-1 3 1 13 2zm-202-10-5 1h-2v1h-4l-4-1 1-1h-8l6-1h5l2 1 1-1 3-1zm180 7-7 1-12-1-8-2-6-3-6-1 5-3 6-1 10 2 14 4z" class="Russian Federation"/><path id="ES" d="m977 223 2 3 9 3 2-2 6 3 6-1v4l-5 4-6 2-1 2-3 3-2 5 2 4-3 3-1 4-4 1-4 5h-12l-3 3-2 2-3-1-2-2-1-3-5-1-1-3 2-2 1-2-2-2 2-4-2-4h2l1-3v-1l1-5 2-2-1-3h-3l-1 1h-3l-1-3-3 1-1 1v-4l-2-3 7-5 7 1h7l5 2 4-1z"/><path d="m1036 231-2 5-2-1-2-4 1-3 4-2zm-22-46 1 1 2-1 2 2 7 1-2 4v5l-2 1-2-1v2l-3 3v3l2-1 2 3v2l1 2-1 2 1 5 3 1-1 3-4 3-10-2-8 3v3l-6 1-6-3-2 2-9-3-2-3 2-3 1-13-5-7-4-3-7-2-1-5 7-1 8 2-1-8 4 3 12-5 1-5 5-1v2h3l2 3 3 3 3-1z" class="France"/><path d="m119 379-1 1h-1v-5h0l1-1v-2h1l2 1 1 1h1l1 3h-1l-2 1zm421-184-7 2-4 2-5 3v1l5-2 2 2 5-1 5-2 5-2-3 3 3 1 2 2 5-1 5-1 1 2h1l1 1 2 2-5 1h0l-4-1-4 1-4 1-5 4-3 2 1 1 5-4h1l-5 5-3 4-2 4-1 3v1l-1 2v4h2l2-1 1-1 3-3 2-4v-4l2-3 2-3 2-2 3-2v3l2-4h1l2-3 4 2 2 2v3l-2 3-4 2v2h1l4-3 2 1-1 4-1 2-3 4-2 2-3 2 3 2h2l4-1 4-2h3l5-2 5-4v-1l1-2h10l5-2 1-2-1-1 7-4 3-2h17l1-1h2l2-1 3-3 3-5 6-5 1 2 4-1 1 1-3 9 2 4 1 2-7 3-6 2-6 2-4 4-1 1-1 3v4h3v-2l1 1-1 2-4 1h-2l-5 1h-5l-5 2 8-1 1 1-8 2h-3v-1l-2 2h2l-3 5-5 5v-2h-1l-1-2v4l1 1-1 2-2 3-5 5h0l3-5-2-2 1-5-2 2v4l-3-1 3 2-2 7h1v2l-1 7-4 4-6 2-5 4h-2l-4 3-1 2-7 4-4 3-3 4-2 5v10l2 4-1 3 2 7-1 5-1 2-2 4-2 1-2-1-1-3-1-1-2-6-2-5v-2l2-4-1-4-3-5-2-1-6 3-1-1-2-3-3-1-7 1-4-1h-5l-2 1 1 2-1 3 1 1-2 1-1-1-3 1h-4l-3-4-5 1-3-1h-4l-5 2-6 4-6 3-4 3-2 3-1 5v3l1 2h-3l-3-1-4-2-1-3v-5l-3-4-1-3-1-5-3-2h-5l-5 5-4-2-2-2v-4l-1-3-3-3-2-2-1-2h-9l-1 3h-15l-11-5-7-3 1-1h-7l-7 1 1-3-2-4-3-1v-2h-2l-2-2h-4l-1-1v-4l-2-6-1-9 1-2-1-2-1-5 1-5-1-4 4-5 3-6 1-5 6-6 4-5 4-6 4-8 2-6v-3l2-1 5 2-1 6 3-2 2-5 2-5h137l1-2h2l-1 3 1 1 3 1 5 1 4 2 4-1zm-265-56-7 2-1-2 2-2 7-3h6v2zm-39-17-4 1-2-1v-2l5-1 3 1zm1-22 1 1 4-1 1 2h4l-1 1-5 1-2-1v-1h-5 0z" class="United States"/><path d="m410 67-25 20-35 33h4l3 2v2l1 4 7-3 7-2-1 3 1 2 1 3-1 4-1 7 5 4-4 4-5 2v-2l-3-2 3-5-1-5 3-5-5-1h-7l-3-2-4-6-3-1-6-2-7 1-6-3-2-3-7 2-3 4h-3l-7 1-6 2-6 2 3-4 8-6 7-2 1-1-10 3-7 4-11 4v3l-9 4-8 3-6 2-4 2-11 4-5 2-8 3h-2l-7 1-7 2-6 2-10 2 1-1 8-3 6-2 9-3 7-1 5-2 10-4 2-1 6-2 6-5 6-3-7 2-1-1-5 2 1-3-4 2 2-3-7 2h-3l3-3 4-2-1-2-7 1v-3l-2-1 4-4v-2l6-4 7-3 6-3h4l2 1 7-3h2l6-1 2-3-1-1 6-2h-3l-6 1-3 1-1-1-7 1-5-2 1-2-1-3 9-2 14-3h3l-4 3 9-1 1-3-2-2 1-3-1-2-3-2 6-3h8l9-2 4-3 8-3h5l11-3 3 1 11-3 4 1v2l3-1 6 1-2 1 5 1 5-1 6 2 8 1h2l6-1 4 2z" class="United States"/><path id="GF" d="m677 487 2-3v-3l1-2-2-4v-5l3-5 2 1 4 1 6 6 1 2-4 6-2 5-2 2-2 1-1-2h-2l-1 1z"/><path id="AW" d="M593 422v-1h1z"/><path id="BH" d="M1264 333v1h0v2h0l-1-1h0z"/><path d="M580 366h-1 0-1 0-1 0v-1h3v-1h1zm-10-16v1h1v1h0v1h1v1l-1-1v0h0-1l1-1h-1v0l1-1h-1 0zm-14-10 1 1v1h0v1h0v1h0-1v1h0-1 0v-1h0-1v-1h-1 0l1-1v1l1-1h-1 0l1-1h0v-1zm8-2 1 1h1v1h-1v1h0v1h0-1 0v-1h1v-1h0v0-1zm-9-8h3v1h0-2 0-1l-1 1h-1 0v-1h1zm4-1h2l1 1v1h0l1 1v0h0v1h-1 0v1l-1 1v1-1h0-1l1-1h0l1-1v0h0v-1h0v-1h0-1 0v0-1 0-1h-1 0z" class="Bahamas"/><path id="BB" d="M652 418h-1v-1 0-1h0v1z"/><path id="CW" d="m599 425-1-1h0v-1 1h1l1 1h0z"/><path d="M1167 277v1h-1 0-1 0-1v1-1h0-1 0-1 0-1 0l-1-1h0v-1h0v-1 1h1v-1h2v1h0l1-1h2v1h1z" class="Cyprus"/><path id="DM" d="M642 402v1h0-1 0z"/><path d="M694 832v-1h-1 0-1v-1h1l1 1h1v-1h1v1h0l1-1v1h1v-1h1v1h-1 1l-1 1h0l-1 1h0v1h-1 0v0h-1 0v1h0-1 0-1v0h0-1 0v-1h0v0h1-1 2v0h0v-1h0zh-1 0v0zm6-2h1v1-1zv1h2-1v-1h2l1 1h0v0h0-2 2v1h0-1l-1 1h1-2 0-1 0-1v0h1v1h1v1h0v-1h-1v1-1h-1 0-1 1v1h0-1 0v1h0-1v-1h0-1l1-1v0h-1v-1h1l1-1h1v1h0l-1-1h0l-1-1h1-1v-1h2z" class="Falkland Islands"/><path id="GD" d="M639 425v-1h0z"/><path id="GU" d="m1801 416 1-1h0v-1h0v1z"/><path id="LC" d="M644 414v-1l1-1v2z"/><path d="M1900 631h2v1h1v1h1v1h1v1h1v1h0l1 1h0v1h1l1 1h1v1h1v1h0v1h1l1 1v0h0v1h-1 0l-1 1v-1h-1 0l-1-1h0l-1-1h0l-1-1h0v0-1h-2 0v-1 1l-1-1h0v-1h-1 0l-1-1v-1h0v-1h-1 0l-1-1h1l-1-1v0h0v-1h0zh-1z" class="New Caledonia"/><path id="PW" d="M1748 453h-1 0v1-1z"/><path d="M612 383h4v0h2v1h1v1h0-1v1h0-1 0l-1 1h0-1v-1l-1 1v-1l-1 1-1-1h0l-1 1h0v-1l-1 1h0v-2h0v-1h0z" class="Puerto Rico"/><path d="M1897 567h1v1h2v1h1v1h0-1 0-1 0-1 0v-1h-1 0-1l1-1h0zh-1 0-1zm-7-5h1v1h1v1h1v1h0-1v1h0l-1-1h0-1 0-1 0-1 0l-1-1h0v-1h0v-1 0-1h1zm5-6 1 1v2h1v1h0v1h0v1h0v2-1h0v-1h-1 0l-1-1h0v-1l-1-1v-1 0-1zv-1h0zm-12-5 1 1h0v0h1v1h1l1 1h1l1 1-1 1h1v1h-1v-1l-1-1h0-1 0l-1-1h0-1v-1h-1v0h0v-1zm-11-6h1v1h1v2h1v1h1v0h0-2 0l-1-1h0l-1-1v-1z" class="Solomon Islands"/><path d="M643 432h-1 0v1h0v1h0v1h0v1h0-1 0-1 0-1 0-1 0-1 1l1-1h1l-1-1 1-1v0l-1-1h1v-1h3z" class="Trinidad and Tobago"/><path id="VC" d="M642 417v-1h1z"/><path d="M1925 605v1h0v0h0v1h0v0h-1 0v0h-1 0v-1h0v-1zl-1 1v-1h0v0-1 0h1zm-1-3h-2 0l-1-1v-2h0v-2 0h1v-1h0v0h0v1h1v2h0l1-1v0h0v1h0v1h1-1v1z" class="Vanuatu"/><path id="BQBO" d="m602 425-1-1h1z"/><path id="MQ" d="M644 407h1v1h0-1 0-1 0zh-1 0v-1h0v-1z"/><path d="M898 318h-1v2h-1v1h0-1 0l-1-1h0v-1h0v-1l1 1v-1h2v0zm10 3v-1h0l1-1v-1h1v1h0v2h-1v1h-1z" class="Canary Islands (Spain)"/><path id="YT" d="m1240 583-1 1h1-1 0v0-1z"/><path id="RE" d="M1295 636v1h1v1h0l-1 1h0-1 0l-1-1h0v0l-1-1h0l1-1h0z"/><path d="M1984 613v1h1v1h0v1h-1v0h1v1h-1 0-1 0-1l-1 1h0-1 0-2v-1h0-1v-2h1v-1h1v-1h1l1-1v1h1v-1h1zm10-7-1 1v1h-1v1h0-1 2v-1h1v1h0l-1 1v-1h0-1v1h-2l1-1h-1 0-1v1h0l-1 1v-1 0h0-1v1h0-1v-1h0v-1h1v-1h1v0h1l1-1h2v-1h3z" class="Fiji"/><circle id="0" cx="998" cy="189"/><circle id="1" cx="674" cy="724"/><circle id="2" cx="1798" cy="719"/></svg>